<svg width="1000" height="320" viewBox="0 0 1000 320" xmlns="http://www.w3.org/2000/svg" role="img" aria-labelledby="title desc">
  <title id="title">LegalConnect Logo</title>
  <desc id="desc">A legal scale icon with signal arcs and the text LegalConnect.</desc>

  <defs>
    <linearGradient id="connectGrad" x1="0" y1="0" x2="1" y2="0">
      <stop offset="0%" stop-color="#0E7490"/>
      <stop offset="100%" stop-color="#22D3EE"/>
    </linearGradient>
  </defs>

  <g transform="translate(110,25)">
    <g fill="none" stroke="#C8920A" stroke-width="10" stroke-linecap="round" stroke-linejoin="round">
      <path d="M120 54 L280 54"/>
      <path d="M200 54 L200 112"/>
      <path d="M120 54 L80 145"/>
      <path d="M120 54 L160 145"/>
      <path d="M280 54 L240 145"/>
      <path d="M280 54 L320 145"/>
    </g>
    <circle cx="120" cy="54" r="8" fill="#C8920A"/>
    <circle cx="200" cy="54" r="8" fill="#C8920A"/>
    <circle cx="280" cy="54" r="8" fill="#C8920A"/>
    <path d="M200 20 L210 40 L190 40 Z" fill="#C8920A"/>
    <path d="M60 150 C70 178 170 178 180 150 Z" fill="#C8920A"/>
    <path d="M220 150 C230 178 330 178 340 150 Z" fill="#C8920A"/>

    <path d="M165 98 Q200 80 235 98 L235 140 Q235 168 200 185 Q165 168 165 140 Z" fill="#C8920A"/>
    <path d="M176 106 Q200 95 224 106 L224 136 Q224 157 200 170 Q176 157 176 136 Z" fill="#0F2A5E"/>
    <path d="M187 133 L198 144 L217 124" fill="none" stroke="#FFFFFF" stroke-width="8" stroke-linecap="round" stroke-linejoin="round"/>

    <g fill="none" stroke="#0E7490" stroke-linecap="round">
      <path d="M145 220 Q200 168 255 220" stroke-width="10"/>
      <path d="M158 244 Q200 205 242 244" stroke-width="10"/>
      <circle cx="200" cy="264" r="11" fill="#0E7490" stroke="none"/>
    </g>
  </g>

  <text x="95" y="300" font-family="Segoe UI, Arial, sans-serif" font-size="96" font-weight="700" fill="#FFFFFF">Legal</text>
  <text x="365" y="300" font-family="Segoe UI, Arial, sans-serif" font-size="96" font-weight="700" fill="url(#connectGrad)">Connect</text>
</svg>
